# xmcd
#
# Track frame offsets: 
#        150
#        16723
#        35079
#        44037
#        72248
#        84331
#        103381
#        111322
#        121857
#        169264
#        185447
#        195669
#        214697
#        225816
#
# Disc length: 3213 seconds
#
# Revision: 0
# Processed by: cddbd v1.5.1PL2 Copyright (c) Steve Scherf et al.
# Submitted via: ExactAudioCopy v0.95b1
#
DISCID=bc0c8b0e
DTITLE=The Stanley Brothers - Bean Blossom, IN, October 16Th 1966
DYEAR=1966
DGENRE=Bluegrass
TTITLE0=My Dixie Home
TTITLE1=I'm Lonesome For You > Talk
TTITLE2=I See Through You
TTITLE3=Somebody Loves You, Darlin'
TTITLE4=Carter Talks > WIldwood Flower
TTITLE5=Searching For A Soldier's Grave > Carter Announcement On Vietn
TTITLE5=am
TTITLE6=The Rosewood Casket
TTITLE7=If I Lose
TTITLE8=Carter Talks > George And Wilbur Banter
TTITLE9=Charmin' Betsy > Birch Monroe Intro
TTITLE10=Down Yonder
TTITLE11=Lost Train Blues
TTITLE12=Canaan's Land
TTITLE13=A Beautiful Life
EXTD=
EXTT0=
EXTT1=
EXTT2=
EXTT3=
EXTT4=
EXTT5=
EXTT6=
EXTT7=
EXTT8=
EXTT9=
EXTT10=
EXTT11=
EXTT12=
EXTT13=
PLAYORDER=
